<svg xmlns="http://www.w3.org/2000/svg" xmlns:xlink="http://www.w3.org/1999/xlink" width="500" zoomAndPan="magnify" viewBox="0 0 375 374.999991" height="500" preserveAspectRatio="xMidYMid meet" version="1.0"><defs><clipPath id="e0f5fdcf62"><path d="M 27.5 37.5 L 347.75 37.5 L 347.75 337.5 L 27.5 337.5 Z M 27.5 37.5 " clip-rule="nonzero"/></clipPath></defs><path fill="#5e6eac" d="M 243.941406 236.386719 L 217.46875 262.949219 L 157.792969 262.949219 L 131.320312 236.386719 L 131.320312 112.273438 L 160.515625 112.273438 L 160.515625 56.847656 L 46.898438 56.847656 L 46.898438 112.277344 L 76.113281 112.277344 L 76.113281 268.300781 L 125.804688 318.148438 L 249.417969 318.148438 L 299.15625 268.300781 L 299.15625 112.273438 L 328.34375 112.273438 L 328.34375 56.847656 L 214.753906 56.847656 L 214.753906 112.277344 L 243.941406 112.277344 L 243.941406 236.386719 " fill-opacity="1" fill-rule="nonzero"/><g clip-path="url(#e0f5fdcf62)"><path fill="#5e6eac" d="M 338.609375 122.53125 L 309.464844 122.53125 L 309.464844 272.542969 L 253.664062 328.445312 L 121.582031 328.445312 L 65.800781 272.550781 L 65.800781 122.53125 L 36.640625 122.53125 L 36.640625 46.550781 L 170.777344 46.550781 L 170.777344 122.53125 L 141.589844 122.53125 L 141.589844 232.140625 L 162.066406 252.652344 L 213.175781 252.652344 L 233.683594 232.140625 L 233.683594 122.53125 L 204.492188 122.53125 L 204.492188 46.550781 L 338.609375 46.550781 Z M 338.609375 37.496094 L 204.492188 37.496094 C 199.492188 37.496094 195.433594 41.550781 195.433594 46.550781 L 195.433594 122.53125 C 195.433594 127.53125 199.492188 131.578125 204.492188 131.578125 L 224.621094 131.578125 L 224.621094 228.394531 L 209.421875 243.601562 L 165.828125 243.601562 L 150.648438 228.402344 L 150.648438 131.578125 L 170.777344 131.578125 C 175.78125 131.578125 179.835938 127.53125 179.835938 122.53125 L 179.835938 46.550781 C 179.835938 41.550781 175.78125 37.496094 170.777344 37.496094 L 36.640625 37.496094 C 31.636719 37.496094 27.582031 41.550781 27.582031 46.550781 L 27.582031 122.53125 C 27.582031 127.53125 31.636719 131.578125 36.640625 131.578125 L 56.746094 131.578125 L 56.746094 272.546875 C 56.746094 274.945312 57.691406 277.242188 59.386719 278.933594 L 115.167969 334.835938 C 116.867188 336.546875 119.175781 337.5 121.582031 337.5 L 253.664062 337.5 C 256.070312 337.5 258.375 336.546875 260.078125 334.839844 L 315.878906 278.941406 C 317.574219 277.242188 318.519531 274.945312 318.519531 272.546875 L 318.519531 131.578125 L 338.609375 131.578125 C 343.609375 131.578125 347.667969 127.53125 347.667969 122.53125 L 347.667969 46.550781 C 347.667969 41.550781 343.609375 37.496094 338.609375 37.496094 " fill-opacity="1" fill-rule="nonzero"/></g></svg>